<svg width="220" height="444" viewBox="0 0 220 444" xmlns="http://www.w3.org/2000/svg" xmlns:xlink="http://www.w3.org/1999/xlink"><title>enniu</title><defs><path d="M93 75.43C93 68.564 89.03 63 81 63s-12 5.565-12 12.43C69 82.293 81 98 81 98s12-15.706 12-22.57zm-1.6.083c0-6.084-3.794-11.017-10.4-11.017S70.6 69.43 70.6 75.513C70.6 81.598 81 95.52 81 95.52s10.4-13.921 10.4-20.006zM81 79.705c3.535 0 6.4-2.85 6.4-6.364 0-3.515-2.865-6.364-6.4-6.364s-6.4 2.85-6.4 6.364 2.865 6.364 6.4 6.364z" id="a"/><path d="M193.23 123s-3.23 0-3.23 3.187v28.68c0 3.187 3.23 3.187 3.23 3.187h14.54s3.23 0 3.23-3.187v-28.68c0-3.187-3.23-3.187-3.23-3.187h-14.54zm-1.615 3.977v25.455h17.77v-25.455h-17.77zm8.885 29.75c.892 0 1.615-.712 1.615-1.59 0-.88-.723-1.592-1.615-1.592s-1.615.713-1.615 1.591c0 .879.723 1.591 1.615 1.591zm-3.681-32.136a.352.352 0 0 0-.357.352v.093c0 .194.16.352.357.352h7.362a.352.352 0 0 0 .357-.352v-.093a.355.355 0 0 0-.357-.352h-7.362z" id="b"/><path d="M73.23 182.5s-3.23 0-3.23 3.187v28.68c0 3.187 3.23 3.187 3.23 3.187h14.54s3.23 0 3.23-3.187v-28.68c0-3.187-3.23-3.187-3.23-3.187H73.23zm-1.615 3.977v25.455h17.77v-25.455h-17.77zm8.885 29.75c.892 0 1.615-.712 1.615-1.59 0-.88-.723-1.592-1.615-1.592s-1.615.713-1.615 1.591c0 .879.723 1.591 1.615 1.591zm-3.681-32.136a.352.352 0 0 0-.357.352v.093c0 .194.16.352.357.352h7.362a.352.352 0 0 0 .357-.352v-.093a.355.355 0 0 0-.357-.352h-7.362z" id="c"/></defs><g fill="none" fill-rule="evenodd"><rect stroke="#00A7EA" stroke-width="1.5" y="6" width="40" height="30" rx="8"/><path d="M78.01 22.345h13.257l4.403-10.173H73.608l4.402 10.173zM91.872 24.2H77.406a.923.923 0 0 1-.848-.558l-5.204-12.028a.93.93 0 0 1 .075-.877.921.921 0 0 1 .771-.418h24.877c.31 0 .601.156.772.418.17.261.199.591.075.877l-5.205 12.028a.923.923 0 0 1-.847.558zm1.103 3.437l-18.36-.015a.923.923 0 0 1-.857-.582L67.074 10.28l-3.272-.435a.928.928 0 0 1 .242-1.837l3.808.506c.33.044.612.263.735.573l6.653 16.68 17.736.015a.926.926 0 1 1 0 1.854zm-16.2 3.496a.665.665 0 0 1-.665-.666c0-.368.298-.667.664-.667.367 0 .664.299.664.667a.665.665 0 0 1-.664.666zm0-3.202a2.53 2.53 0 0 0-2.525 2.536c0 1.4 1.13 2.534 2.524 2.534a2.529 2.529 0 0 0 2.524-2.534 2.53 2.53 0 0 0-2.524-2.536zm12.9 3.202a.665.665 0 0 1-.663-.666c0-.368.298-.667.663-.667.367 0 .664.299.664.667a.665.665 0 0 1-.664.666zm0-3.202a2.53 2.53 0 0 0-2.524 2.536c0 1.4 1.13 2.534 2.524 2.534a2.53 2.53 0 0 0 2.525-2.534 2.53 2.53 0 0 0-2.525-2.536zM145.032 11.253c-.496-2.9-2.733-5.094-5.41-5.094s-4.916 2.195-5.412 5.094h10.822zm-12.953 0C132.61 7.159 135.79 4 139.622 4c3.83 0 7.01 3.159 7.542 7.253H154l-1.427 22.56h-25.145L126 11.253h6.08zm5.853 11.575c.117.111.524.636.825.636.31 0 1.92-1.76 2.616-2.549l3.286-3.896c.11-.117.193-.194.366-.199.17-.005.395.06.51.171l1.06 1.072a.63.63 0 0 1 .194.443.625.625 0 0 1-.167.454l-5.98 6.474.008.01-1.273 1.384a.605.605 0 0 1-.875.03l-3.61-3.475a.646.646 0 0 1-.027-.897l.849-.925a.611.611 0 0 1 .874-.028l1.344 1.295zM153.788 36h-27.57l1.188-1.65h25.134l1.248 1.65z" fill="#00A7EA"/><use fill="#00A7EA" xlink:href="#a"/><use xlink:href="#a"/><path d="M157.511 73.333l-5.203 1.833.474 1.485 3.662-1.29v17.067l-10.299 2.692-10.846-2.917-9.744 2.334V77.89l3.782-2.55-1.03-1.167L124 77.015v19.316h1.555v-.001l9.725-2.404L146.132 97l11.864-3.424H158v-18.96l-.489-1.283zm-16.512-3.548c-1.305 0-2.366 1.006-2.366 2.242 0 1.235 1.061 2.242 2.366 2.242 1.305 0 2.367-1.007 2.367-2.242 0-1.236-1.062-2.242-2.367-2.242zm0 6.038c-2.16 0-3.919-1.704-3.919-3.796 0-2.093 1.758-3.796 3.92-3.796 2.16 0 3.918 1.703 3.918 3.796 0 2.092-1.758 3.796-3.919 3.796zm.001-11.27c-2.1 0-4.07.787-5.548 2.215a7.889 7.889 0 0 0-2.4 5.338c-.08 1.767.717 3.981 2.37 6.579 1.598 2.51 3.45 4.514 3.98 5.069.545.572.99 1.007 1.355 1.35l.495-.472c.016-.014.31-.292.765-.747l.034-.03c.767-.68 1.677-1.662 2.565-2.764l.015-.018c1.052-1.227 1.886-2.342 2.48-3.318 1.085-1.78 1.53-3.416 1.711-4.474l.002-.013c.054-.284.09-.563.108-.832v-.01a4.61 4.61 0 0 0 .015-.297c.016-1.938-.748-3.782-2.15-5.195-1.5-1.513-3.612-2.38-5.797-2.38zm-.231 22.682l-.6-.554c-.442-.411-1.05-.974-1.89-1.854-.555-.58-2.493-2.679-4.166-5.308-1.828-2.873-2.707-5.39-2.612-7.483a9.437 9.437 0 0 1 2.873-6.386c1.768-1.709 4.12-2.65 6.626-2.65 2.596 0 5.111 1.035 6.9 2.84 1.694 1.709 2.618 3.946 2.6 6.299 0 .036-.003.178-.02.4-.02.33-.064.67-.128 1.012-.207 1.192-.705 3.026-1.915 5.013-.636 1.044-1.517 2.226-2.62 3.512-.931 1.155-1.896 2.193-2.719 2.925-.454.454-.746.73-.779.76l-1.55 1.474zM193.324 86.118V73.882L203.803 80l-10.479 6.118zm24.339-14.804a.567.567 0 0 0-.667.017l-6.126 4.534v-4.44c0-1.337-.905-2.425-2.016-2.425h-23.838c-1.113 0-2.016 1.088-2.016 2.425v17.151c0 1.337.903 2.424 2.016 2.424h23.838c1.111 0 2.016-1.087 2.016-2.424v-4.454l6.126 4.534c.205.15.46.157.667.016.208-.14.337-.404.337-.69V72.005c0-.286-.129-.55-.337-.692z" fill="#00A7EA"/><g fill="#00A7EA"><path d="M207.735 18.587c.58-1.772.504-3.3-.368-4.236-1.404-1.506-4.488-1.06-7.755.86.735-1.949.72-3.646-.22-4.654-1.94-2.08-7.08-.437-11.484 3.668-3.648 3.403-5.645 7.429-5.118 9.892-.093.381-.143.78-.143 1.19 0 1.495.659 2.832 1.696 3.727 1.833 3.6 7.9 5.724 14.747 4.883 7.87-.966 13.79-5.482 13.225-10.088-.271-2.213-1.992-4.044-4.58-5.242zm-11.057 13.208c5.712-.399 10.131-3.749 9.87-7.481-.26-3.733-5.103-6.435-10.815-6.036-5.713.4-10.132 3.75-9.87 7.482.26 3.733 5.103 6.435 10.815 6.035zm.34-1.256c2.964-.85 4.765-3.638 4.022-6.228-.742-2.59-3.747-4-6.71-3.15-2.965.85-4.766 3.638-4.023 6.228.743 2.59 3.747 4 6.711 3.15zm-1.984-2.29c.832-.604 1.078-1.682.55-2.409-.528-.726-1.63-.826-2.461-.222-.832.605-1.078 1.683-.55 2.41.528.726 1.63.826 2.461.221zm2.022-3.045c.356-.258.502-.665.326-.907s-.607-.228-.964.03c-.356.26-.502.666-.326.908s.607.228.964-.03z"/><path d="M207.814 10.147a4.23 4.23 0 0 1 .355-.015c2.349 0 4.253 1.941 4.253 4.336 0 .247-.02.49-.059.726.039.112.06.232.06.358 0 .599-.477 1.084-1.064 1.084a1.074 1.074 0 0 1-1.063-1.084c0-.181.043-.352.12-.502l-.186-.047c.043-.171.066-.35.066-.535 0-1.197-.953-2.168-2.127-2.168-.093 0-.185.006-.275.018l-.006-.048c-.08.02-.164.03-.25.03a1.074 1.074 0 0 1-1.064-1.084 1.074 1.074 0 0 1 1.24-1.07zm-3.832 3.549a4.444 4.444 0 0 0 0 1.544v-1.544zm3.34-5.128c.277-.041.56-.062.847-.062 3.23 0 5.849 2.67 5.849 5.962a6.08 6.08 0 0 1-.197 1.54c-.209.239-.335.554-.335.899 0 .748.595 1.355 1.33 1.355.666 0 1.218-.5 1.314-1.153l.139.017a8.82 8.82 0 0 0 .407-2.658c0-4.79-3.809-8.672-8.507-8.672-.888 0-1.743.138-2.548.395l.077.298c-.427.225-.72.68-.72 1.204 0 .748.596 1.355 1.33 1.355.407 0 .771-.187 1.015-.48z"/></g><path d="M84.173 138.873c-2.361 0-4.268-1.934-4.268-4.322 0-2.382 1.907-4.319 4.268-4.319 2.355 0 4.263 1.937 4.263 4.32 0 2.39-1.908 4.321-4.263 4.321zm0 11.338c-2.361 0-4.268-1.936-4.268-4.323 0-2.386 1.907-4.322 4.268-4.322 2.355 0 4.263 1.936 4.263 4.322 0 2.387-1.908 4.323-4.263 4.323zm-11.196-11.338c-2.355 0-4.264-1.934-4.264-4.322 0-2.382 1.909-4.319 4.264-4.319 2.356.003 4.269 1.939 4.269 4.321 0 2.388-1.911 4.32-4.269 4.32zm0 11.338c-2.355 0-4.264-1.936-4.264-4.323 0-2.386 1.909-4.322 4.264-4.322 2.356.003 4.269 1.936 4.269 4.322 0 2.387-1.911 4.323-4.269 4.323zm10.945-24.792c9.854.683 12.078 6.917 12.078 6.917l-.365-4.135c-3.502-4.96-10.366-4.57-14.988-3.6a15.147 15.147 0 0 0-2.073-.154c-8.604 0-15.574 7.06-15.574 15.774C63 148.935 69.97 156 78.574 156c8.602 0 15.582-7.065 15.582-15.78-.005-6.8-4.272-12.588-10.234-14.801zM135.792 136.406H130l10.22 11.636 10.221-11.636h-5.79v-11.231c0-1.477-1.18-2.675-2.632-2.675h-3.597c-1.453 0-2.63 1.198-2.63 2.675v11.23zm-9.292 16.022h27v5.072h-27v-5.072zM20 154.5c8.008 0 14.5-6.492 14.5-14.5s-6.492-14.5-14.5-14.5S5.5 131.992 5.5 140s6.492 14.5 14.5 14.5zm-3.658-4.887v-19.138l11.793 9.569-11.793 9.569z" fill="#00A7EA"/><use fill="#00A7EA" xlink:href="#b"/><use xlink:href="#b"/><path d="M200.493 218c-9.66 0-17.493-8.056-17.493-18.008 0-9.936 7.834-17.992 17.493-17.992 9.675 0 17.507 8.056 17.507 17.992 0 9.952-7.832 18.008-17.507 18.008zm.856-18.574a1.458 1.458 0 0 0-1.06-.522l-.1 1.566 1.537.104c.03-.402-.102-.82-.377-1.148zm-7.73.044c.449-.895 2.058-1.655 2.16-2.09.493-2.296-1.958-6.145-3.61-5.698-6.064 1.656-3.686 8.266-1.51 11.89 2.567 4.313 6.7 7.565 11.4 8.817 2.176.584 4.787.106 6.398-2.267.55-.805.942-2.655.507-2.983-.928-.687-2.887-2.134-5.048-2.492-.42-.06-1.683 1.79-2.538 2.686-1.131 1.179-8.543-6.267-7.76-7.863zm15.243-6.833c-2.103-2.462-4.974-3.819-7.919-4.014l-.117 1.717a9.805 9.805 0 0 1 6.788 3.43 10.28 10.28 0 0 1 2.423 7.356l1.683.12c.188-3.03-.755-6.148-2.858-8.609zm-2.538 2.312c-1.493-1.745-3.524-2.7-5.598-2.834l-.102 1.641a6.45 6.45 0 0 1 4.482 2.282 6.783 6.783 0 0 1 1.61 4.879l1.61.105c.131-2.148-.523-4.342-2.002-6.073zm-2.48 2.223a4.717 4.717 0 0 0-3.336-1.685l-.102 1.685c.812.06 1.61.433 2.205 1.12.58.686.84 1.551.783 2.401l1.654.104a5 5 0 0 0-1.204-3.625zM13.609 193.057c0-4.002 3.315-7.246 7.404-7.246 4.088 0 7.403 3.244 7.403 7.246 0 4.003-3.315 7.248-7.403 7.248-4.09 0-7.404-3.245-7.404-7.248zm14.206 11.224c.151.11.336.176.54.176a.908.908 0 0 0 .919-.9.896.896 0 0 0-.409-.749l.001-.001a14.13 14.13 0 0 0-3.594-1.71c2.966-1.507 4.993-4.541 4.993-8.04 0-5.001-4.143-9.057-9.252-9.057-5.112 0-9.254 4.056-9.254 9.057 0 3.499 2.028 6.53 4.993 8.04-5.63 1.757-9.717 6.905-9.752 12.993l.003.078a.91.91 0 0 0 .914.842c.49 0 .892-.374.922-.843 0-6.58 5.45-11.914 12.172-11.914 2.518 0 4.859.75 6.801 2.031l.003-.003zm-1.25 8.334c-1.756 1.382-.407 2.304.364 3.06.891.872 4.214.046 7.501-3.169 3.286-3.215 4.129-6.468 3.238-7.34-.773-.757-1.715-2.078-3.127-.359-1.411 1.722-.72 2.203.079 2.984.559.546-.606 1.926-1.822 3.117-1.216 1.19-2.627 2.328-3.182 1.785-.798-.78-1.29-1.46-3.05-.078zM132.814 194.582v-.88h2.171l.048.135a3.723 3.723 0 0 0 3.462 2.406h.011c.126 0 .26-.006.396-.02.263-.031.515-.088.768-.174l.182-.06c.185-.07.356-.158.527-.26a3.69 3.69 0 0 0 1.597-1.896l.046-.134h2.169v.879h.003v.2a5.855 5.855 0 0 0 1.073 3.4l3.22 4.61a8.1 8.1 0 0 1 1.105 2.183c.246.78.352 1.588.352 2.406v3.055h-22.88v-3.052c0-.817.107-1.625.35-2.406a8.004 8.004 0 0 1 1.105-2.182l3.22-4.61a6.078 6.078 0 0 0 .804-1.617 5.818 5.818 0 0 0 .266-1.783v-.2h.005zm17.822 6.85a10.59 10.59 0 0 1 1.36 2.772c.327 1.034.47 2.092.47 3.176V213v-.002h-27.93v-5.62c0-1.083.144-2.142.472-3.176.31-.991.774-1.909 1.357-2.766H121v-3.523h.007v-.147c0-2.902 1.19-5.62 3.251-7.622a11.14 11.14 0 0 1 7.768-3.138h.204V187h12.607v.006h.137c2.892 0 5.68 1.11 7.769 3.14 2.062 2 3.25 4.718 3.253 7.619v.201H156v3.466h-5.364zm-1.644-2.355l-1.652-2.367a3.526 3.526 0 0 1-.47-.916 3.338 3.338 0 0 1-.146-1.012v-.2h.007v-2.81h-7.075v.825c0 .386-.216.732-.544.924-.032.017-.062.034-.093.045v.016l-.14.044a1.035 1.035 0 0 1-.254.05.876.876 0 0 1-.126.012 1.198 1.198 0 0 1-1-.555.983.983 0 0 1-.143-.427c-.004-.036-.004-.076-.004-.113v-.823h-7.078v2.81h.005v.2a3.3 3.3 0 0 1-.146 1.012c-.105.33-.27.636-.468.916l-1.654 2.37v-.206h-4.47v-.9h-.005v-.203c0-2.2.912-4.257 2.478-5.78a8.635 8.635 0 0 1 6.014-2.429h.202v.008h12.542v-.012h.202c2.24.002 4.398.86 6.017 2.431 1.563 1.519 2.476 3.576 2.476 5.778v.201h-.004v.902h-4.47v.209zm-10.49 1.621a2.223 2.223 0 0 1 2.214 2.234c0 1.231-.989 2.232-2.214 2.232-1.22 0-2.21-1-2.21-2.232 0-1.232.987-2.234 2.21-2.234zm0-2.527c-2.605 0-4.718 2.134-4.718 4.765 0 2.63 2.113 4.762 4.718 4.762 2.606 0 4.719-2.133 4.719-4.762-.004-2.636-2.113-4.765-4.719-4.765z" fill="#00A7EA"/><use fill="#00A7EA" xlink:href="#c"/><use xlink:href="#c"/><path d="M88.074 244c-1.365 0-2.65.252-3.815.75-.94.4-1.801.959-2.565 1.66a9.365 9.365 0 0 0-1.194 1.328 9.197 9.197 0 0 0-1.194-1.328 8.971 8.971 0 0 0-2.563-1.66c-1.166-.498-2.45-.75-3.817-.75-1.457 0-2.836.32-4.104.95a9.626 9.626 0 0 0-3.139 2.526 11.477 11.477 0 0 0-1.986 3.591A12.809 12.809 0 0 0 63 255.26c0 1.34.245 2.688.727 4.005a14.99 14.99 0 0 0 1.738 3.313c1.34 1.953 2.938 3.457 3.995 4.452l.104.098c.86.811 2.733 2.271 4.717 3.815 1.281.999 2.607 2.031 3.648 2.882 1.354 1.107 1.735 1.51 1.842 1.644.327.308.392.532.73.532.338 0 .457-.313.73-.532.107-.134.488-.537 1.843-1.644 1.04-.851 2.366-1.883 3.646-2.882 1.983-1.544 3.857-3.004 4.716-3.815l.103-.095c1.057-.995 2.656-2.498 3.996-4.452.747-1.09 1.333-2.205 1.738-3.314.482-1.318.727-2.667.727-4.007 0-1.441-.234-2.852-.695-4.192a11.495 11.495 0 0 0-1.986-3.59 9.61 9.61 0 0 0-3.14-2.526 9.108 9.108 0 0 0-4.105-.951zm0 2.45c1.095 0 2.129.238 3.07.707a7.251 7.251 0 0 1 2.361 1.904 9.048 9.048 0 0 1 1.558 2.825c.371 1.077.558 2.211.558 3.373a9.113 9.113 0 0 1-.574 3.143c-.333.914-.824 1.844-1.455 2.763-1.192 1.738-2.675 3.134-3.658 4.057l-.1.097c-.78.733-2.696 2.226-4.55 3.669l-.005.005c-1.29 1.006-2.623 2.044-3.684 2.912-.452.369-.809.67-1.095.92-.284-.25-.641-.551-1.093-.92-1.06-.868-2.397-1.908-3.688-2.914l-.004-.003c-1.851-1.443-3.767-2.936-4.546-3.67l-.105-.099c-.981-.922-2.466-2.32-3.656-4.056-.63-.92-1.12-1.849-1.455-2.763a9.146 9.146 0 0 1-.574-3.141c0-1.162.189-2.296.56-3.373a9.027 9.027 0 0 1 1.558-2.825 7.248 7.248 0 0 1 2.36-1.904 6.812 6.812 0 0 1 3.07-.707c1.05 0 2.029.19 2.905.564a6.67 6.67 0 0 1 1.891 1.224c.324.3.624.63.885.984l1.892 2.567 1.894-2.567c.262-.353.559-.685.884-.984a6.649 6.649 0 0 1 1.89-1.224c.876-.374 1.855-.564 2.906-.564zM7.658 265.097a6.991 6.991 0 0 1 3.242.08 6.65 6.65 0 0 1 2.888 1.605c.408.394.754.838 1.038 1.33a6.81 6.81 0 0 1 .647 1.536c.15.532.228 1.07.235 1.617a6.796 6.796 0 0 1-.152 1.571c-1.069.228-2.145.166-3.23-.183a7.346 7.346 0 0 1-2.876-1.73c-.849-.788-1.418-1.702-1.708-2.742a6.12 6.12 0 0 1-.084-3.084zm25.683 0a6.133 6.133 0 0 1-.081 3.084c-.291 1.04-.861 1.954-1.71 2.742a7.334 7.334 0 0 1-2.876 1.73c-1.084.349-2.161.41-3.229.183a6.796 6.796 0 0 1-.153-1.571 6.293 6.293 0 0 1 .235-1.617c.15-.53.366-1.042.648-1.535.284-.493.63-.937 1.038-1.33a6.652 6.652 0 0 1 2.887-1.606 6.991 6.991 0 0 1 3.241-.08zm-3.782-17.009c-.974.235-1.877.187-2.707.686a10.391 10.391 0 0 0-2.222 1.776 8.86 8.86 0 0 0-1.323-3.73 9.272 9.272 0 0 0-2.783-2.82 9.756 9.756 0 0 0-2.723 2.776 8.802 8.802 0 0 0-1.355 3.657 9.843 9.843 0 0 0-4.897-2.82c-.508 1.156-.761 7.348-.761 8.582 0 .92.132 1.8.395 2.643.264.841.63 1.626 1.095 2.35a9.801 9.801 0 0 0 3.863 3.436c.986.495 2.049.8 3.187.925V276h2.503v-10.453c.465-.054.917-.141 1.354-.262a10.287 10.287 0 0 0 1.748-.661v-.03a9.37 9.37 0 0 0 2.161-1.468 10.24 10.24 0 0 0 1.69-1.969 9.01 9.01 0 0 0 1.475-4.963c0-1.233-.234-6.99-.7-8.106zM197.71 268.865c0 .462-.391.836-.87.836-.482 0-.871-.374-.871-.836v-9.948c0-.461.389-.836.871-.836.479 0 .87.375.87.836v9.948zm11.628 8.585h-3.17c.046-.17.077-.343.077-.525v-18.799c0-1.177-.996-2.133-2.221-2.133h-8.048c-1.224 0-2.221.956-2.221 2.133v18.799c0 .182.031.356.076.525h-3.17c-.64 0-1.161.5-1.161 1.116v.32c0 .614.521 1.114 1.16 1.114h18.678c.64 0 1.162-.5 1.162-1.115v-.319c0-.616-.521-1.116-1.162-1.116zm-10.208-24.513c-.562-.303-1.2-.875-1.164-1.91.078-2.192 2.864-1.693 2.638-3.35-.187-1.348 2.832 3.547 1.208 5.117 1.723-.48 2.56-1.8 2.433-3.866-.216-3.504-3.457-8.928-4.338-8.928a.424.424 0 0 0-.283.136c-.108.144-.101.35.028.738.552 1.642-.19 2.433-1.219 3.524-.919.978-2.067 2.196-2.562 4.389-.274 1.213-.108 2.193.493 2.91.685.815 1.814 1.126 2.766 1.24zM159 260.5c0-10.217-8.283-18.5-18.5-18.5s-18.5 8.283-18.5 18.5 8.283 18.5 18.5 18.5 18.5-8.283 18.5-18.5zm-35 0c0-9.113 7.387-16.5 16.5-16.5s16.5 7.387 16.5 16.5-7.387 16.5-16.5 16.5-16.5-7.387-16.5-16.5zm8.905.025h1.905v8.57h-1.905v-8.57zm18.095 1.19a3.571 3.571 0 0 0-3.572-3.572h-1.883c.108-.46.217-3.317.217-3.81v-.476a2.858 2.858 0 0 0-5.714 0v.477a4.286 4.286 0 0 1-4.286 4.285h-3.81a.953.953 0 0 0-.952.953v10.476c0 .525.427.952.952.952h3.81a.953.953 0 0 0 .952-.952v-9.605a6.185 6.185 0 0 0 5.239-6.11v-.476a.953.953 0 0 1 1.905 0v.477c0 .108-.013 3.309-.37 4.082-.357.774.16 1.632 1.295 1.632h2.648v-.02l.015.021c.912.01 1.65.751 1.65 1.666 0 .21-.044.41-.116.597l.003.006-2.295 6.458-.006.005a.473.473 0 0 1-.445.314c-.005 0-.008-.003-.013-.003h-2.32v.003h-4.333a.953.953 0 0 0 0 1.905h6.666a2.38 2.38 0 0 0 2.18-1.426l.008.002 2.402-6.76-.002-.001c.113-.347.175-.717.175-1.1zM10.722 330.696l1.768-7.585a.78.78 0 0 1 .622-.466.813.813 0 0 0 .114.007l11.06.005-.008 8.458c-2.244.555-4.04 2.203-4.756 4.328l-.003-.001c-.071.21-.151.475-.207.76-.133.669-.12 1.313-.12 1.313h-.01a.783.783 0 0 1-.792.826.783.783 0 0 1-.793-.772v-.036h-.004s-.128-.619-.129-1.297c0-.856.112-1.302.112-1.302h.009c.14-.706.387-1.375.727-1.99l-.008-.006a.804.804 0 0 0 .088-.366.838.838 0 0 0-.85-.827l-5.988-.006h-.002v-.002a.825.825 0 0 1-.74-.376.776.776 0 0 1-.084-.663l-.006-.002zm16.952.211l-1.696.004.006-8.253h1.698l-.008 8.25zm-18.295 1.317a2.535 2.535 0 0 0 2.071 1.16.9.9 0 0 0 .104.007l4.736.005a8.472 8.472 0 0 0-.282 4.745l.012-.002c.253 1.066 1.234 1.861 2.406 1.861 1.364 0 2.47-1.076 2.47-2.403 0-.08-.005-.16-.013-.238.084-2.542 2.135-4.6 4.72-4.78v-.015l2.813-.006a.838.838 0 0 0 .956-.82l.008-9.917a.838.838 0 0 0-.99-.815H25.27a.865.865 0 0 0-.265 0l-11.775-.013a2.543 2.543 0 0 0-1.347.381c-.403.25-.708.593-.904.982a.8.8 0 0 0-.11.24l-1.834 7.879a.788.788 0 0 0-.026.267c-.04.502.077 1.021.371 1.482zm20.899-22.92l-1.768 7.585a.779.779 0 0 1-.623.466.88.88 0 0 0-.113-.007l-11.06-.005.008-8.458c2.245-.555 4.04-2.203 4.756-4.328l.002.002c.072-.21.152-.476.208-.761.133-.668.12-1.313.12-1.313h.01a.783.783 0 0 1 .792-.825c.437 0 .793.345.793.771l-.001.036h.005s.127.62.129 1.297c0 .856-.112 1.302-.112 1.302h-.009a6.877 6.877 0 0 1-.727 1.99l.008.007a.802.802 0 0 0-.088.365c0 .457.38.827.849.827l5.988.006h.003v.002a.826.826 0 0 1 .74.376.777.777 0 0 1 .084.663l.006.002zm-16.952-.211l1.696-.004-.006 8.253h-1.697l.007-8.249zm18.295-1.317a2.536 2.536 0 0 0-2.072-1.16.9.9 0 0 0-.104-.007l-4.735-.005a8.45 8.45 0 0 0 .495-2.855c0-.65-.074-1.281-.213-1.89l-.012.002c-.253-1.066-1.234-1.861-2.406-1.861-1.364 0-2.47 1.076-2.47 2.404 0 .08.005.159.012.238-.084 2.541-2.134 4.6-4.719 4.78v.014l-2.813.006a.838.838 0 0 0-.956.82l-.008 9.917c0 .456.38.826.85.826a.956.956 0 0 0 .14-.011h3.121a.818.818 0 0 0 .265 0l11.775.013c.461 0 .929-.122 1.347-.381.403-.25.708-.593.904-.982a.801.801 0 0 0 .11-.24l1.834-7.879a.8.8 0 0 0 .027-.267 2.397 2.397 0 0 0-.372-1.482zM128.091 313.292c-.238-.807-.433-1.658-.52-2.356H122.5c.368.851.585 1.396 1.019 2.662l4.616 13.132c.368 1.047.585 1.788.693 2.356h5.635c.108-.546.325-1.287.693-2.356l4.595-13.132c.542-1.506.737-2.007 1.04-2.662h-5.093c-.065.742-.217 1.353-.498 2.356l-3.143 10.493c-.108.414-.151.545-.411 1.505-.239-.916-.239-.916-.412-1.505l-3.143-10.493zm13.654 10.318c.151 1.004.26 1.505.476 2.029.455 1.243 1.257 2.181 2.34 2.792 1.171.676 2.992 1.069 4.834 1.069 2.535 0 4.442-.633 5.7-1.854.996-.982 1.516-2.378 1.516-4.014 0-2.007-.78-3.468-2.34-4.45-.824-.524-1.864-.894-3.51-1.243-2.558-.524-2.558-.524-2.992-.72-.693-.327-1.018-.786-1.018-1.396 0-1.004.975-1.724 2.297-1.724 1.647 0 2.427.59 2.687 2.007l4.595-.502c-.282-1.243-.542-1.897-1.084-2.617-1.17-1.636-3.272-2.487-6.025-2.487-4.269 0-6.956 2.116-6.956 5.475 0 1.767.737 3.229 2.102 4.189.802.567 1.495.829 3.489 1.265 2.254.523 2.796.676 3.25.894.564.262.911.85.911 1.527 0 1.222-.997 1.963-2.666 1.963-1.105 0-2.015-.37-2.535-1.025-.325-.436-.477-.829-.564-1.614l-4.507.436zM75.578 314.29a3.97 3.97 0 0 0-1.372-.534c-.52-.106-1.17-.161-1.946-.161h-2.053v7.241h1.69c1 0 1.81-.08 2.429-.236.617-.158 1.13-.44 1.539-.847.367-.364.634-.761.8-1.191.168-.432.251-.933.251-1.51 0-.624-.11-1.168-.332-1.632a2.74 2.74 0 0 0-1.006-1.13zm16.646 15.358l-6.795-8.434-1.09 1.193v7.241h-2.478v-18.12h2.478v8.337l7.635-8.337h3.017l-7.71 8.092 8.16 10.028h-3.217zm-13.16-10.424a5.263 5.263 0 0 1-1.197 1.797 6.384 6.384 0 0 1-2.264 1.397c-.868.318-1.966.476-3.293.476h-2.103v6.754H67.73v-18.12h4.681c1.102 0 2.041.09 2.817.268.776.176 1.46.465 2.053.863a5.005 5.005 0 0 1 1.627 1.759c.392.71.589 1.567.589 2.573a5.857 5.857 0 0 1-.432 2.233zM95.158 302.5H64.842c-1.569 0-2.842 1.236-2.842 2.762v29.475c0 1.525 1.273 2.763 2.842 2.763h30.316c1.569 0 2.842-1.238 2.842-2.763v-29.475c0-1.526-1.273-2.762-2.842-2.762zM209.748 316.078h-3.731v1.295h3.234l1.872 2.253h-22.245l1.872-2.253h3.234v-1.295h-3.732l-3.96 3.96h27.416l-3.96-3.96zm-10.771-.666l-2.647-3.294 2.323 1.276 5.312-4.208-4.988 6.226zm-4.307 3.452h10.661v-11.696H194.67v11.696zm-6.395 2.85h23.45v9.899h-23.45v-9.899zm-1.983 11.118h27.416v-12.794h-27.416v12.794zM19.606 85.475c-2.635.046-4.805-2.12-4.849-4.834-.044-2.715 2.055-4.953 4.69-4.998 2.633-.045 4.804 2.12 4.848 4.835.044 2.713-2.056 4.952-4.69 4.997zm-.213-13.135c-4.404.076-7.914 3.816-7.84 8.356.073 4.54 3.703 8.158 8.106 8.082 4.403-.075 7.914-3.817 7.84-8.357-.074-4.54-3.703-8.157-8.106-8.08zm16.97 10.22c-2.107 2.648-6.95 9.266-16.875 9.437-8.229.142-13.54-5.69-16.943-9.369-.741-.802-.756-2.813.14-3.813 2.876-3.223 8.046-9.669 16.43-9.813 8.607-.15 14.981 7.184 17.29 9.629.677.715.917 2.729-.041 3.93zM12.313 16.62h6.75v6.784h-.844v-.445h-5.063v.445h-.844V16.62zm5.906.796h-5.063v4.746h5.063v-4.746zM8.187 22.338c.493-.133.997-.274 1.512-.422v-2.73H8.281V18.4H9.7V16.14h.867V18.4h1.254v.786h-1.254v2.472l1.278-.41c.008.305.031.61.07.914-.453.14-.902.285-1.348.434v3.597c0 .836-.375 1.254-1.125 1.254H8.387a10.002 10.002 0 0 0-.14-.914c.374.016.69.024.948.024.336 0 .504-.172.504-.516v-3.164c-.46.148-.926.305-1.394.469l-.117-1.008zm5.344-3.527h1.723c.008-.329.012-.676.012-1.043h.785c0 .351-.004.699-.012 1.043h1.793v.703h-1.816a2.987 2.987 0 0 1-.118.55c.743.305 1.422.61 2.04.915l-.458.75a23.33 23.33 0 0 0-1.863-1.055c-.36.523-.937.914-1.734 1.172a5.19 5.19 0 0 0-.445-.715c1.054-.29 1.644-.828 1.769-1.617h-1.676v-.703zm-.222 5.109h.82v1.851c0 .5.234.75.703.75h1.23c.555 0 .88-.195.973-.585.086-.368.156-.809.211-1.325.297.133.578.25.844.352-.094.5-.192.941-.293 1.324-.18.688-.723 1.031-1.629 1.031H14.68c-.914 0-1.371-.488-1.371-1.464V23.92zm-1.313-.082l.785.234a23.341 23.341 0 0 1-.926 2.766 5.821 5.821 0 0 0-.808-.328c.351-.719.668-1.61.95-2.672zm5.918.223l.727-.34c.422.773.828 1.586 1.218 2.437l-.785.387a39.345 39.345 0 0 0-1.16-2.484zm-3.281-.47l.62-.468c.532.547.997 1.082 1.395 1.606l-.703.562c-.297-.46-.734-1.027-1.312-1.7zm10.008-2.355h1.593l.164-3.586h-1.734v-.843h6.41l-.328 9.468h.973v.844h-7.524v-.844h1.828l.176-4.195h-1.558v-.844zm-.246 3.422c0 .344.02.668.058.973-.453.242-1.078.598-1.875 1.066-.14.078-.305.211-.492.399l-.621-.809c.25-.25.375-.543.375-.879v-2.332h-1.57v-.808h1.57v-1.465h-.785v-.809h3.093v.809h-1.453v1.465H24.5v.808h-1.805v2.567c.266-.141.832-.47 1.7-.985zm2.53 1.617h2.919l.14-4.195h-2.882l-.176 4.195zm3.223-8.625H27.29l-.152 3.586h2.883l.128-3.586zm-9.984 2.004a13.92 13.92 0 0 0 1.816-3.62l.88.292c-.212.524-.438 1.028-.68 1.512h2.25v.808h-2.66a18.9 18.9 0 0 1-1.114 1.805 6.807 6.807 0 0 0-.492-.797z" fill="#00A7EA"/></g></svg>