<svg width="220" height="500" xmlns="http://www.w3.org/2000/svg"><title>res</title><defs><linearGradient id="a" y2="32.803%" x2="50%" y1="94.045%" x1="50%"><stop offset="0%" stop-opacity="0" stop-color="#E6E6E6"/><stop offset="100%" stop-color="#E6E6E6"/></linearGradient><linearGradient id="b" y2="NaN" x2="50%" y1="NaN" x1="50%"><stop offset="0%" stop-opacity="0" stop-color="#E6E6E6"/><stop offset="100%" stop-color="#E6E6E6"/></linearGradient></defs><title>background</title><path fill="none" d="M-1-1h222v502H-1z"/><g><title>Layer 1</title><g stroke="null" fill-rule="evenodd" fill="none"><path fill="#F0F0F0" d="M321.543 15.578h-.926V9.133h8.297v4.945c0 .953-.52 1.43-1.559 1.43-.703 0-1.472-.016-2.308-.047-.047-.273-.11-.59-.188-.95.766.055 1.536.083 2.309.083.547.008.82-.227.82-.703v-.551h-6.445v2.238zm3.95-11.45h.878v1.66a61.645 61.645 0 0 0 3.445-.98l.317.786c-1.301.343-2.555.656-3.762.937V7c0 .46.246.691.738.691h1.559c.46 0 .723-.136.785-.41.078-.25.149-.629.211-1.136.234.109.524.218.867.328a9.767 9.767 0 0 1-.304 1.218c-.172.516-.614.774-1.325.774h-1.957c-.968 0-1.453-.461-1.453-1.383V4.129zM319 7.505a72.268 72.268 0 0 0 3.738-.656v-.809h-3.41v-.727h3.41V4.105h.88v4.43h-.88V7.68c-1.222.246-2.394.484-3.515.715L319 7.504zm2.543 5.086h6.445v-.961h-6.445v.96zm6.445-2.672h-6.445v.96h6.445v-.96zm4.453-5.39h8.625v3.937h-.843v-.422h-6.938v.422h-.844V4.527zm.211 5.777h8.297V13h-.844v-.375h-2.824v1.629c.008.828-.402 1.242-1.23 1.242-.524 0-.957-.004-1.301-.012a20.526 20.526 0 0 0-.176-.925c.492.046.914.07 1.266.07.375 0 .566-.195.574-.586v-1.418h-2.918V13h-.844v-2.695zm-1.265-1.418h4.898c-.09-.16-.183-.325-.281-.492l.785-.329c.164.286.315.559.451.82h4.905v.727h-10.758v-.726zm8.718 2.12h-6.609v.915h6.61v-.914zm-6.82-3.667h6.938v-.715h-6.938v.715zm6.938-2.11h-6.938v.715h6.938V5.23zm-1.97 8.637l.4-.738c1.21.453 2.398.918 3.562 1.394l-.434.809c-1.07-.5-2.246-.988-3.527-1.465zm-3.421-.75l.492.715a101.45 101.45 0 0 1-3.469 1.617 6.276 6.276 0 0 0-.468-.75 39.427 39.427 0 0 0 3.445-1.582zm9.621-3.363h8.52v5.789h-.891v-.645h-6.738v.668h-.89V9.754zM343 7.867h3.463a8.556 8.556 0 0 0-.733-1.078l.739-.48c.312.398.617.82.914 1.265l-.463.293h3.082c.371-.512.705-1.039 1.002-1.582l.914.54a50.44 50.44 0 0 1-.879 1.042h3.422v.844H343v-.844zm.598-2.449h4.933a9.054 9.054 0 0 0-.574-.996l.89-.422c.227.336.47.715.727 1.137l-.568.281h4.892v.844h-10.3v-.844zm1.746 8.648h6.738v-1.359h-6.738v1.36zm6.738-3.48h-6.738v1.312h6.738v-1.312zm4.477-5.531a93.32 93.32 0 0 0 8.414-.54l.316.915c-2.781.257-5.402.41-7.863.457l-.446 3.375h3.422v-2.66h.973v2.66h4.617v.89h-4.617v3.68c0 .602-.11 1.016-.328 1.242-.242.25-.637.375-1.184.375-.289 0-.808-.004-1.558-.012a9.33 9.33 0 0 0-.188-1.007c.79.07 1.301.101 1.535.093.5.016.75-.242.75-.773v-3.598h-4.523l.68-5.097zm6.949 5.777a43.772 43.772 0 0 1 3.094 3.469l-.786.703a50.586 50.586 0 0 0-3.046-3.61l.738-.562zm-5.59.023l.82.575c-1.133 1.508-2.156 2.699-3.07 3.574l-.738-.656a28.605 28.605 0 0 0 2.988-3.493z"/><g fill="#F0F0F0"><path d="M508.483.318c.163-.164.107-.297-.123-.297h-4.18c-.23 0-.552.133-.715.297l-9.361 9.36c-.162.164-.295.108-.295-.122V.44a.422.422 0 0 0-.42-.419h-2.71a.42.42 0 0 0-.419.419v20.119c0 .23.188.419.419.419h2.71c.231 0 .42-.189.42-.419v-5.148c0-.229.133-.552.295-.714l3.599-3.598a.343.343 0 0 1 .54.045l6.782 9.493a.919.919 0 0 0 .663.341h3.53c.231 0 .31-.154.175-.341l-8.608-12.036a.514.514 0 0 1 .053-.638l7.645-7.645M461.157 2.545l-.091-.832-.141-1.296A.48.48 0 0 0 460.46 0h-1.769a.965.965 0 0 0-.674.332l-.333.434-.511.665-5.357 6.983c-.14.184-.369.184-.51 0l-5.358-6.983c-.141-.183-.369-.483-.51-.665l-.332-.434a.967.967 0 0 0-.673-.332h-1.771a.48.48 0 0 0-.464.417l-.142 1.294c-.024.231-.066.605-.091.834l-1.963 17.994a.37.37 0 0 0 .373.418h2.732c.231 0 .44-.187.464-.418L445.09 6.62c.025-.23.161-.268.301-.086l4.508 5.877.453.59c.109.144.387.259.618.259h1.183a.96.96 0 0 0 .674-.332l4.904-6.394c.14-.182.275-.143.3.086l1.52 13.919a.478.478 0 0 0 .464.418h2.731c.232 0 .4-.187.375-.418l-1.964-17.994M469.475 20.978c.23 0 .492-.175.58-.386l1.989-4.782a.681.681 0 0 1 .581-.387h8.132a.68.68 0 0 1 .58.387l1.989 4.782c.089.211.35.386.58.386h3.006c.23 0 .346-.175.257-.386L478.773.408a.68.68 0 0 0-.58-.387h-3.005a.681.681 0 0 0-.58.387l-8.397 20.184c-.087.211.028.386.259.386h3.005zm7.054-15.951c.089-.213.234-.213.323 0l2.688 6.461c.088.213-.029.387-.259.387H474.1c-.231 0-.347-.174-.257-.387l2.686-6.461zM515.813 20.978c.23 0 .49-.175.579-.386l1.989-4.782a.68.68 0 0 1 .58-.387h8.134c.23 0 .491.174.58.387l1.989 4.782a.683.683 0 0 0 .58.386h3.005c.23 0 .346-.175.258-.386L525.111.408a.683.683 0 0 0-.581-.387h-3.005a.68.68 0 0 0-.58.387l-8.396 20.184c-.089.211.027.386.258.386h3.006zm7.054-15.951c.088-.213.233-.213.322 0l2.687 6.461c.089.213-.027.387-.257.387h-5.181c-.231 0-.347-.174-.258-.387l2.687-6.461zM539.998.428a6.076 6.076 0 0 1-.016-.132l-.022-.208a.077.077 0 0 0-.074-.067h-.283a.154.154 0 0 0-.108.053l-.053.07-.082.106-.858 1.118c-.022.029-.059.029-.081 0L537.563.25l-.081-.106-.053-.07a.156.156 0 0 0-.108-.053h-.282a.077.077 0 0 0-.075.067l-.023.208-.015.132-.314 2.881a.06.06 0 0 0 .06.066h.437c.037 0 .07-.03.075-.066l.242-2.229c.004-.036.026-.042.049-.013l.72.939.074.096c.017.023.061.041.098.041h.189a.158.158 0 0 0 .109-.053l.784-1.023c.022-.029.044-.023.048.013l.243 2.229a.076.076 0 0 0 .074.066h.437c.038 0 .064-.03.06-.066l-.313-2.881M536.116.088a.067.067 0 0 0-.067-.067h-3.085a.067.067 0 0 0-.067.067v.434c0 .037.03.068.067.068h1.191c.037 0 .067.029.067.066v2.652c0 .036.03.067.067.067h.434a.068.068 0 0 0 .067-.067V.656c0-.037.03-.066.067-.066h1.192a.068.068 0 0 0 .067-.068V.088"/></g><path fill="url(#a)" opacity=".6" d="M18 391.763L10 380l-8 11.763h4.8V401h6.4v-9.237H18z"/><path fill="url(#b)" opacity=".6" d="M117 389.237L109 401l-8-11.763h4.8V380h6.4v9.237h4.8z"/><path fill="#29adeb" d="M0 1h42v43H0z"/><rect rx="10" height="43" width="42" y="1" x="80" fill="#29adeb"/><rect rx="40" height="43" width="42" y="1" x="160" fill="#29adeb"/><path fill="#F0F0F0" d="M397 2.615c-.008-.39-.31-.703-.682-.703-.372 0-.674.313-.681.703V16H397V2.615zm-14.318 4.078c-.372 0-.674.313-.682.702V16h1.364V7.395c-.008-.39-.31-.702-.682-.702zM387.227 0c-.372 0-.674.313-.681.703V16h1.363V.703c-.008-.39-.31-.703-.682-.703zm4.546 4.302c-.373 0-.674.314-.682.703V16h1.364V5.005c-.008-.39-.31-.703-.682-.703z"/><path fill="#29adeb" d="M181 113.5l-12.343 6.49 2.357-13.745-9.986-9.734 13.8-2.006L181 82l6.172 12.505 13.8 2.006-9.986 9.734 2.357 13.744zM21 162l21 42H0zM166.632 187.888L160 183.95l6.632-3.937v-5.014c0-2.76 2.239-4.999 4.992-4.999h25.384a4.992 4.992 0 0 1 4.992 5v17c0 2.762-2.24 5-4.992 5h-25.384a4.992 4.992 0 0 1-4.992-5v-4.112zM40.093 102.576l.322.12L21.396 122 5.777 106.147A11.284 11.284 0 0 1 0 96.26C0 90.04 4.967 85 11.094 85c4.328 0 8.077 2.515 9.906 6.184C22.829 87.515 26.578 85 30.906 85 37.033 85 42 90.042 42 96.26c0 2.341-.703 4.515-1.907 6.316zM87.531 113.085C82.928 109.963 80 105.27 80 100.024 80 90.622 89.402 83 101 83s21 7.622 21 17.024c0 9.402-9.402 17.023-21 17.023-1.195 0-2.367-.08-3.508-.236l-13.05 5.43 3.09-9.156zM80 162l42 42H80zM21 241l19.972 14.856-7.629 24.038H8.657l-7.63-24.038zM101 241l18.187 10.75v21.5L101 284l-18.187-10.75v-21.5zM167 242h28v42l-14-10.5-14 10.5v-42z"/></g></g></svg>