<?xml version="1.0"?>
<svg width="220" height="500" xmlns="http://www.w3.org/2000/svg">
 <!-- Generator: Sketch 3.3.2 (12043) - http://www.bohemiancoding.com/sketch -->
 <title>res</title>
 <desc>Created with Sketch.</desc>
 <defs>
  <linearGradient id="linearGradient-1" y2="32.8031994%" x2="50%" y1="94.0452939%" x1="50%">
   <stop offset="0%" stop-opacity="0" stop-color="#E6E6E6"/>
   <stop offset="100%" stop-color="#E6E6E6"/>
  </linearGradient>
  <linearGradient id="svg_1" y2="NaN" x2="50%" y1="NaN" x1="50%">
   <stop offset="0%" stop-opacity="0" stop-color="#E6E6E6"/>
   <stop offset="100%" stop-color="#E6E6E6"/>
  </linearGradient>
 </defs>
 <g>
  <title>background</title>
  <rect fill="none" id="canvas_background" height="502" width="222" y="-1" x="-1"/>
 </g>
 <g>
  <title>Layer 1</title>
  <g fill-rule="evenodd" fill="none" id="Page-1">
   <g stroke="null" id="res">
    <path stroke="null" fill="#F0F0F0" id="&#32972;&#26223;&#38899;&#20048;" d="m321.542969,15.57813l-0.925781,0l0,-6.44532l8.296875,0l0,4.94532c0,0.95312 -0.519531,1.42968 -1.558594,1.42968c-0.703125,0 -1.472656,-0.015619 -2.308594,-0.046869c-0.046875,-0.27344 -0.109375,-0.58984 -0.1875,-0.949221c0.765625,0.05469 1.535156,0.08203 2.308594,0.08203c0.546875,0.00781 0.820313,-0.22656 0.820313,-0.70312l0,-0.55079l-6.445313,0l0,2.23829zm3.949219,-11.44922l0.878906,0l0,1.6582c1.117188,-0.28125 2.265625,-0.60742 3.445313,-0.97852l0.316406,0.78516c-1.300781,0.34375 -2.554688,0.65625 -3.761719,0.9375l0,0.46875c0,0.46094 0.246094,0.69141 0.738281,0.69141l1.558594,0c0.460938,0 0.722656,-0.13672 0.785156,-0.41016c0.078125,-0.25 0.148438,-0.6289 0.210938,-1.13672c0.234375,0.10938 0.523438,0.21875 0.867188,0.32813c-0.101563,0.51562 -0.203125,0.92187 -0.304688,1.21875c-0.171875,0.51562 -0.613281,0.77343 -1.324219,0.77343l-1.957031,0c-0.96875,0 -1.453125,-0.46093 -1.453125,-1.38281l0,-2.95312zm-6.492188,3.375c1.371094,-0.20704 2.617188,-0.42578 3.738281,-0.65625l0,-0.8086l-3.410156,0l0,-0.72656l3.410156,0l0,-1.20703l0.878906,0l0,4.42969l-0.878906,0l0,-0.85547c-1.222656,0.24609 -2.394531,0.48437 -3.515625,0.71484l-0.222656,-0.89062zm2.542969,5.08593l6.445313,0l0,-0.96093l-6.445313,0l0,0.96093zm6.445313,-2.67187l-6.445313,0l0,0.96094l6.445313,0l0,-0.96094zm4.453125,-5.39063l8.625,0l0,3.9375l-0.84375,0l0,-0.42187l-6.9375,0l0,0.42187l-0.84375,0l0,-3.9375zm0.210938,5.77735l8.296875,0l0,2.69531l-0.84375,0l0,-0.375l-2.824219,0l0,1.62891c0.007813,0.82813 -0.402344,1.24218 -1.230469,1.24218c-0.523438,0 -0.957031,-0.0039 -1.300781,-0.01171c-0.015625,-0.117189 -0.074219,-0.425779 -0.175781,-0.92579c0.492188,0.04688 0.914063,0.07032 1.265625,0.07032c0.375,0 0.566406,-0.19531 0.574219,-0.58594l0,-1.41797l-2.917969,0l0,0.375l-0.84375,0l0,-2.69531zm-1.265625,-1.417971l4.898438,0c-0.089844,-0.16016 -0.183594,-0.32422 -0.28125,-0.492189l0.785156,-0.32812c0.164063,0.28515 0.314453,0.55859 0.451172,0.82031l4.904297,0l0,0.726561l-10.757813,0l0,-0.726561zm8.71875,2.12109l-6.609375,0l0,0.91407l6.609375,0l0,-0.91407zm-6.820313,-3.66797l6.9375,0l0,-0.71484l-6.9375,0l0,0.71484zm6.9375,-2.10937l-6.9375,0l0,0.71484l6.9375,0l0,-0.71484zm-1.96875,8.63672l0.398438,-0.73828c1.210938,0.45312 2.398438,0.91796 3.5625,1.39453l-0.433594,0.80859c-1.070313,-0.5 -2.246094,-0.98828 -3.527344,-1.46484l0,0zm-3.421875,-0.75l0.492188,0.71484c-1.132813,0.554689 -2.289063,1.09375 -3.46875,1.617189c-0.117188,-0.22656 -0.273438,-0.47656 -0.46875,-0.75c1.335938,-0.54688 2.484375,-1.07422 3.445313,-1.582029l0,0zm9.621094,-3.36328l8.519531,0l0,5.78906l-0.890625,0l0,-0.644529l-6.738281,0l0,0.66797l-0.890625,0l0,-5.8125zm-1.453125,-1.88672l3.462891,0c-0.222656,-0.38672 -0.466797,-0.74609 -0.732422,-1.07813l0.738281,-0.48047c0.3125,0.39844 0.617188,0.82031 0.914063,1.26563l-0.462891,0.29297l3.082031,0c0.371094,-0.51172 0.705078,-1.03906 1.001953,-1.58203l0.914063,0.53906c-0.242188,0.29688 -0.535156,0.64453 -0.878906,1.04297l3.421875,0l0,0.84375l-11.460938,0l0,-0.84375zm0.597656,-2.44922l4.933594,0c-0.183594,-0.36719 -0.375,-0.69922 -0.574219,-0.99609l0.890625,-0.42188c0.226563,0.33594 0.46875,0.71484 0.726563,1.13672l-0.568359,0.28125l4.892578,0l0,0.84375l-10.300781,0l0,-0.84375zm1.746094,8.64844l6.738281,0l0,-1.35938l-6.738281,0l0,1.35938zm6.738281,-3.48047l-6.738281,0l0,1.3125l6.738281,0l0,-1.3125zm4.476563,-5.53125c2.960938,-0.0625 5.765625,-0.24219 8.414063,-0.53906l0.316406,0.91406c-2.78125,0.25781 -5.402344,0.41015 -7.863281,0.45703l-0.445313,3.375l3.421875,0l0,-2.66016l0.972656,0l0,2.66016l4.617188,0l0,0.89062l-4.617188,0l0,3.67969c0,0.60157 -0.109375,1.01563 -0.328125,1.242189c-0.242188,0.25 -0.636719,0.375 -1.183594,0.375c-0.289063,0 -0.808594,-0.00391 -1.558594,-0.01172c-0.039063,-0.3125 -0.101563,-0.64844 -0.1875,-1.00781c0.789063,0.07031 1.300781,0.10156 1.535156,0.09375c0.5,0.015619 0.75,-0.24219 0.75,-0.77344l0,-3.59766l-4.523438,0l0.679688,-5.09765zm6.949219,5.77734c1.148438,1.16407 2.179688,2.32031 3.09375,3.46875l-0.785156,0.70313c-0.90625,-1.18751 -1.921875,-2.39062 -3.046875,-3.60938l0.738281,-0.5625zm-5.589844,0.023439l0.820313,0.574221c-1.132813,1.50782 -2.15625,2.699209 -3.070313,3.57422c-0.21875,-0.19532 -0.464844,-0.41407 -0.738281,-0.65625c1.078125,-1.07032 2.074219,-2.23437 2.988281,-3.49219l0,0z"/>
    <g stroke="null" fill="#F0F0F0" id="Imported-Layers">
     <path stroke="null" id="Fill-1" d="m508.483002,0.318c0.162994,-0.164 0.106995,-0.297 -0.122986,-0.297l-4.180023,0c-0.22998,0 -0.551971,0.133 -0.714996,0.297l-9.360992,9.36c-0.161987,0.164 -0.295013,0.108 -0.295013,-0.122001l0,-9.116c0,-0.229 -0.188995,-0.419 -0.419983,-0.419l-2.709991,0c-0.231018,0 -0.419006,0.19 -0.419006,0.419l0,20.119c0,0.23 0.187988,0.419001 0.419006,0.419001l2.709991,0c0.230988,0 0.419983,-0.189001 0.419983,-0.419001l0,-5.148c0,-0.229 0.133026,-0.552 0.295013,-0.714l3.598999,-3.598001c0.162994,-0.164 0.404999,-0.144 0.540009,0.045l6.782013,9.492999c0.133972,0.187 0.431976,0.341002 0.662994,0.341002l3.529999,0c0.230988,0 0.309998,-0.154001 0.174988,-0.341002l-8.608002,-12.035999c-0.134003,-0.189 -0.110016,-0.476 0.053009,-0.638l7.644989,-7.645"/>
     <path stroke="null" id="Fill-2" d="m461.157013,2.545c-0.026001,-0.229 -0.06601,-0.603 -0.091003,-0.832l-0.141022,-1.296c-0.02597,-0.229 -0.233978,-0.417 -0.464996,-0.417l-1.768982,0c-0.231018,0 -0.535004,0.151 -0.674011,0.332l-0.333008,0.434c-0.139984,0.183001 -0.369995,0.482 -0.510986,0.665l-5.356995,6.983c-0.140015,0.184 -0.369019,0.184 -0.51001,0l-5.358002,-6.983c-0.140991,-0.183 -0.368988,-0.483 -0.509979,-0.665l-0.332001,-0.434c-0.140015,-0.181 -0.443024,-0.332 -0.673004,-0.332l-1.770996,0c-0.230011,0 -0.439026,0.188 -0.46402,0.417l-0.141998,1.294c-0.023987,0.231 -0.06601,0.605 -0.091003,0.834l-1.962982,17.993999c-0.025024,0.231001 0.143982,0.418001 0.372986,0.418001l2.731995,0c0.231018,0 0.440002,-0.187 0.46402,-0.418001l1.518982,-13.919c0.024994,-0.23 0.161011,-0.268 0.300995,-0.086l4.508026,5.877c0.139984,0.181 0.343994,0.448999 0.452972,0.59c0.109009,0.144 0.387024,0.259 0.618011,0.259l1.183014,0c0.22998,0 0.533997,-0.149 0.673981,-0.332l4.904022,-6.394001c0.139984,-0.182 0.274994,-0.143 0.299988,0.086l1.519989,13.919c0.024017,0.231001 0.234009,0.418001 0.46402,0.418001l2.730988,0c0.231995,0 0.399994,-0.187 0.375,-0.418001l-1.963989,-17.993999"/>
     <path stroke="null" id="Fill-3" d="m469.475006,20.978001c0.230011,0 0.492004,-0.175001 0.579987,-0.386002l1.989014,-4.781999c0.088013,-0.213 0.350006,-0.387 0.580994,-0.387l8.132019,0c0.230988,0 0.491974,0.174 0.579987,0.387l1.988983,4.781999c0.08902,0.211 0.350006,0.386002 0.580017,0.386002l3.006012,0c0.22998,0 0.345978,-0.175001 0.256989,-0.386002l-8.395996,-20.183999c-0.088013,-0.213 -0.348999,-0.387 -0.580017,-0.387l-3.005005,0c-0.22998,0 -0.491974,0.174 -0.579987,0.387l-8.397003,20.183999c-0.087006,0.211 0.028015,0.386002 0.259003,0.386002l3.005005,0l0,0zm7.053986,-15.951001c0.08902,-0.213 0.234009,-0.213 0.322998,0l2.688019,6.461c0.087982,0.213 -0.028992,0.387 -0.259003,0.387l-5.181,0c-0.230988,0 -0.347015,-0.174 -0.256989,-0.387l2.685974,-6.461l0,0z"/>
     <path stroke="null" id="Fill-4" d="m515.812988,20.978001c0.230042,0 0.48999,-0.175001 0.579041,-0.386002l1.988953,-4.781999c0.088013,-0.213 0.348999,-0.387 0.580017,-0.387l8.134033,0c0.22998,0 0.490967,0.174 0.579956,0.387l1.989014,4.781999c0.088013,0.211 0.348999,0.386002 0.580017,0.386002l3.005005,0c0.22998,0 0.346008,-0.175001 0.257996,-0.386002l-8.395996,-20.183999c-0.088989,-0.213 -0.350037,-0.387 -0.580994,-0.387l-3.005005,0c-0.231018,0 -0.492004,0.174 -0.580017,0.387l-8.395996,20.183999c-0.088989,0.211 0.026978,0.386002 0.257996,0.386002l3.005981,0l0,0zm7.054016,-15.951001c0.088013,-0.213 0.232971,-0.213 0.322021,0l2.686951,6.461c0.08905,0.213 -0.026978,0.387 -0.256958,0.387l-5.18103,0c-0.230957,0 -0.346985,-0.174 -0.257996,-0.387l2.687012,-6.461l0,0z"/>
     <path stroke="null" id="Fill-5" d="m539.997986,0.428c-0.005005,-0.036 -0.011963,-0.096 -0.015991,-0.132l-0.021973,-0.208c-0.004028,-0.037 -0.038025,-0.067 -0.074036,-0.067l-0.282959,0c-0.036987,0 -0.085999,0.024 -0.108032,0.053l-0.052979,0.07c-0.02301,0.03 -0.059998,0.077 -0.082031,0.106l-0.857971,1.118c-0.022034,0.029 -0.059021,0.029 -0.080994,0l-0.858032,-1.118c-0.021973,-0.029 -0.05896,-0.076 -0.080994,-0.106l-0.052979,-0.07c-0.02301,-0.029 -0.070984,-0.053 -0.108032,-0.053l-0.281982,0c-0.036987,0 -0.070984,0.03 -0.075012,0.067l-0.022949,0.208c-0.004028,0.036 -0.01001,0.096 -0.015015,0.132l-0.314026,2.881c-0.002991,0.036 0.02301,0.066 0.059998,0.066l0.437012,0c0.036987,0 0.070007,-0.03 0.075012,-0.066l0.242004,-2.229c0.003967,-0.036 0.026001,-0.042 0.049011,-0.013l0.719971,0.939c0.02301,0.029 0.05603,0.073 0.073975,0.096c0.017029,0.023 0.061035,0.041 0.098022,0.041l0.189026,0c0.036987,0 0.085999,-0.024 0.109009,-0.053l0.783936,-1.023c0.022034,-0.029 0.044006,-0.023 0.048035,0.013l0.242981,2.229c0.004028,0.036 0.037048,0.066 0.074036,0.066l0.437012,0c0.037964,0 0.063965,-0.03 0.059998,-0.066l-0.313049,-2.881"/>
     <path stroke="null" id="Fill-6" d="m536.116028,0.088c0,-0.037 -0.030029,-0.067 -0.067017,-0.067l-3.085022,0c-0.036987,0 -0.066956,0.03 -0.066956,0.067l0,0.434c0,0.037 0.029968,0.068 0.066956,0.068l1.19104,0c0.036987,0 0.066956,0.029 0.066956,0.066l0,2.652c0,0.036 0.030029,0.067 0.067017,0.067l0.434021,0c0.036987,0 0.067017,-0.031 0.067017,-0.067l0,-2.652c0,-0.037 0.029968,-0.066 0.066956,-0.066l1.192017,0c0.036987,0 0.067017,-0.031 0.067017,-0.068l0,-0.434"/>
    </g>
    <path stroke="null" fill="url(#linearGradient-1)" opacity="0.6" id="Triangle-1" d="m18,391.763397l-8,-11.763397l-8,11.763397l4.8,0l0,9.236603l6.4,0l0,-9.236603l4.8,0z"/>
    <path stroke="null" fill="url(#svg_1)" opacity="0.6" id="Triangle-1" d="m117,389.236603l-8,11.763397l-8,-11.763397l4.800003,0l0,-9.236603l6.399994,0l0,9.236603l4.800003,0z"/>
    <rect stroke="null" height="43" width="42" y="1" x="0" fill="#29adeb" id="Rectangle-199"/>
    <rect stroke="null" rx="10" height="43" width="42" y="1" x="80" fill="#29adeb" id="Rectangle-200"/>
    <rect stroke="null" rx="40" height="43" width="42" y="1" x="160" fill="#29adeb" id="Rectangle-203"/>
    <path stroke="null" fill="#F0F0F0" id="Shape" d="m396.999695,2.61485c-0.007294,-0.38946 -0.309204,-0.7027 -0.681519,-0.7027c-0.372284,0 -0.674164,0.31326 -0.681488,0.7027l-0.000336,0l0,13.38513l1.363647,0l0,-13.38513l-0.000305,0l0,0zm-14.317871,4.07771c-0.372284,0 -0.674194,0.31326 -0.681488,0.70272l-0.000336,0l0,8.60472l1.363617,0l0,-8.60472l-0.000336,0c-0.007294,-0.38946 -0.309174,-0.70272 -0.681458,-0.70272l0,0zm4.545441,-6.69256c-0.372284,0 -0.674164,0.31324 -0.681488,0.70267l-0.000336,0l0,15.29731l1.363617,0l0,-15.29728l-0.000336,0c-0.007294,-0.38946 -0.309143,-0.7027 -0.681458,-0.7027l0,0zm4.545471,4.30236c-0.372284,0 -0.674194,0.31324 -0.681519,0.7027l-0.000336,0l0,10.99492l1.363678,0l0,-10.99492l-0.000336,0c-0.007263,-0.38946 -0.309204,-0.7027 -0.681488,-0.7027l0,0z"/>
    <polygon stroke="null" points="181,113.5 168.65650939941406,119.9893798828125 171.01390075683594,106.24468994140625 161.02781677246094,96.5106201171875 174.82826232910156,94.50531005859375 181,82 187.17173767089844,94.50531005859375 200.97218322753906,96.5106201171875 190.98609924316406,106.24468994140625 193.34349060058594,119.9893798828125 " fill="#29adeb" id="Star-5"/>
    <polygon stroke="null" points="21,162 42,204 1.1920928955078125e-7,204 " fill="#29adeb" id="Triangle-6"/>
    <path stroke="null" fill="#29adeb" id="Triangle-7" d="m166.631577,187.887512l-6.631577,-3.9375l6.631577,-3.9375l0,-5.013062c0,-2.761108 2.239288,-4.999451 4.992416,-4.999451l25.383591,0c2.757233,0 4.992416,2.232483 4.992416,4.999451l0,17.001099c0,2.761108 -2.239288,4.999451 -4.992416,4.999451l-25.383591,0c-2.757233,0 -4.992416,-2.232483 -4.992416,-4.999451l0,-4.113037z"/>
    <path stroke="null" fill="#29adeb" id="Triangle-8" d="m40.092628,102.575867l0.32246,0.119812l-19.018858,19.304321l-15.618851,-15.853271c-3.44264,-1.911621 -5.77738,-5.622009 -5.77738,-9.885864c0,-6.219177 4.9671,-11.260864 11.09434,-11.260864c4.32787,0 8.07694,2.51532 9.90566,6.184265c1.82872,-3.668945 5.577789,-6.184265 9.905659,-6.184265c6.127232,0 11.094341,5.041687 11.094341,11.260864c0,2.340393 -0.703411,4.514038 -1.907372,6.315002z"/>
    <path stroke="null" fill="#29adeb" id="Oval-11" d="m87.53138,113.085327c-4.6035,-3.122803 -7.53138,-7.815063 -7.53138,-13.061707c0,-9.401855 9.402023,-17.023621 21,-17.023621c11.597977,0 21,7.621765 21,17.023621c0,9.401917 -9.402023,17.023621 -21,17.023621c-1.19532,0 -2.36731,-0.080933 -3.508087,-0.23645l-13.050575,5.430786l3.090042,-9.15625z"/>
    <polygon stroke="null" points="80,162 122,204 80,204 " fill="#29adeb" id="Triangle-9"/>
    <polygon stroke="null" points="21,241 40.97218704223633,255.85614013671875 33.34349060058594,279.89385986328125 8.656509399414062,279.89385986328125 1.027813196182251,255.85614013671875 " fill="#29adeb" id="Polygon-3"/>
    <polygon stroke="null" points="101,241 119.18653106689453,251.75 119.18653106689453,273.25 101,284 82.81346893310547,273.25 82.81346893310547,251.75 " fill="#29adeb" id="Polygon-4"/>
    <path stroke="null" fill="#29adeb" id="Rectangle-204" d="m167,242l28,0l0,42l-14,-10.5l-14,10.5l0,-42z"/>
   </g>
  </g>
 </g>
</svg>